<svg width="25" height="26" viewBox="0 0 25 26" fill="none" xmlns="http://www.w3.org/2000/svg">
<g clip-path="url(#clip0_3919_7435)">
<path fill-rule="evenodd" clip-rule="evenodd" d="M3.90658 4.40625C3.90658 5.28542 4.1972 6.09687 4.68783 6.75H2.86491C2.38144 6.75 1.91778 6.94206 1.57591 7.28392C1.23405 7.62578 1.04199 8.08945 1.04199 8.57292V11.1771C1.04199 11.9042 1.46803 12.5312 2.08366 12.825V21.5938C2.08366 22.6 2.90033 23.4167 3.90658 23.4167H21.0941C21.5775 23.4167 22.0412 23.2246 22.3831 22.8827C22.7249 22.5409 22.917 22.0772 22.917 21.5938V12.825C23.5326 12.5323 23.9587 11.9042 23.9587 11.1771V8.57292C23.9587 8.08945 23.7666 7.62578 23.4247 7.28392C23.0829 6.94206 22.6192 6.75 22.1357 6.75H20.3128C20.7481 6.16965 21.0131 5.47956 21.0783 4.75705C21.1434 4.03455 21.0061 3.30817 20.6817 2.65932C20.3573 2.01047 19.8586 1.46478 19.2415 1.0834C18.6244 0.70201 17.9133 0.5 17.1878 0.5C15.6712 0.5 13.6087 1.43854 12.5003 3.73958C11.392 1.43854 9.32845 0.5 7.81283 0.5C6.77682 0.5 5.78325 0.91155 5.05069 1.64411C4.31813 2.37668 3.90658 3.37025 3.90658 4.40625ZM11.6878 6.75C11.3889 3.11146 9.01074 2.0625 7.81283 2.0625C7.19122 2.0625 6.59508 2.30943 6.15554 2.74897C5.71601 3.18851 5.46908 3.78465 5.46908 4.40625C5.46908 5.02785 5.71601 5.62399 6.15554 6.06353C6.59508 6.50307 7.19122 6.75 7.81283 6.75H11.6878ZM21.3545 13V21.5938C21.3545 21.6628 21.3271 21.7291 21.2782 21.7779C21.2294 21.8267 21.1631 21.8542 21.0941 21.8542H13.2816V13H21.3545ZM11.7191 21.8542V13H3.64616V21.5938C3.64616 21.7375 3.76283 21.8542 3.90658 21.8542H11.7191ZM22.1357 11.4375C22.2048 11.4375 22.271 11.4101 22.3199 11.3612C22.3687 11.3124 22.3962 11.2462 22.3962 11.1771V8.57292C22.3962 8.50385 22.3687 8.43761 22.3199 8.38877C22.271 8.33994 22.2048 8.3125 22.1357 8.3125H13.2816V11.4375H22.1357ZM2.86491 11.4375H11.7191V8.3125H2.86491C2.79584 8.3125 2.7296 8.33994 2.68077 8.38877C2.63193 8.43761 2.60449 8.50385 2.60449 8.57292V11.1771C2.60449 11.3208 2.72116 11.4375 2.86491 11.4375ZM19.5316 4.40625C19.5316 5.02785 19.2846 5.62399 18.8451 6.06353C18.4056 6.50307 17.8094 6.75 17.1878 6.75H13.3128C13.6118 3.11146 15.9899 2.0625 17.1878 2.0625C17.8094 2.0625 18.4056 2.30943 18.8451 2.74897C19.2846 3.18851 19.5316 3.78465 19.5316 4.40625Z" fill="white"/>
</g>
<defs>
<clipPath id="clip0_3919_7435">
<rect width="25" height="25" fill="white" transform="translate(0 0.5)"/>
</clipPath>
</defs>
</svg>
