<svg xmlns="http://www.w3.org/2000/svg" xmlns:xlink="http://www.w3.org/1999/xlink" viewBox="0 0 102.21 101"><defs><linearGradient id="a" x1="91.76" y1="92.4" x2="41.12" y2="42.5" gradientTransform="matrix(1, 0, 0, -1, 0, 102)" gradientUnits="userSpaceOnUse"><stop offset="0" stop-color="#fff"/><stop offset="1" stop-color="#11afff"/></linearGradient><linearGradient id="b" x1="47.02" y1="46.67" x2="85.42" y2="87.85" xlink:href="#a"/><linearGradient id="c" x1="10.23" y1="34.73" x2="25.76" y2="0.67" xlink:href="#a"/></defs><path d="M66,70A35,35,0,1,0,31,35,35,35,0,0,0,66,70Z" fill="url(#a)"/><path d="M66,63.22A28.23,28.23,0,1,0,37.76,35,28.23,28.23,0,0,0,66,63.22Z" fill="url(#b)"/><path d="M59.17,49.78A22.63,22.63,0,0,1,55.08,48a12.1,12.1,0,0,1-2.55-1.8l3-4.34a10.93,10.93,0,0,0,1.89,1.47,17.29,17.29,0,0,0,3.13,1.51l2.51-8.65c-.76-.65-1.51-1.34-2.23-2.08a10.8,10.8,0,0,1-1.8-2.42,8.06,8.06,0,0,1-.92-2.92,8.76,8.76,0,0,1,.36-3.57A8.26,8.26,0,0,1,62.1,20.1a9.72,9.72,0,0,1,6-1.1l1.12-3.88,4.43,1.28-1.07,3.71a17.77,17.77,0,0,1,3.11,1.46A20.21,20.21,0,0,1,78,23.21l-2.9,4.29a14.13,14.13,0,0,0-1.63-1.16,16.18,16.18,0,0,0-2.36-1.2L68.83,33c.76.66,1.52,1.36,2.26,2.11A11.38,11.38,0,0,1,73,37.59a8.61,8.61,0,0,1,1,2.9,8.16,8.16,0,0,1-.3,3.5,9.2,9.2,0,0,1-3.75,5.54,9.67,9.67,0,0,1-6.23,1.26l-1.14,4L58.1,53.48l1.07-3.71Zm5-23.35a2.79,2.79,0,0,0,.37,2.39,11.41,11.41,0,0,0,2,2.28l2-6.82a3.74,3.74,0,0,0-3,.17,3.51,3.51,0,0,0-1.34,2ZM67.94,43a2.84,2.84,0,0,0-.42-2.52,12.36,12.36,0,0,0-2.15-2.34L63.2,45.64a4.44,4.44,0,0,0,3.12-.38A3.76,3.76,0,0,0,67.94,43Z" fill="#0c2780"/><path d="M37.23,95.45c2.14-.62,1.63-8.86-1.15-18.41s-6.76-16.77-8.9-16.15-1.63,8.86,1.15,18.41S35.09,96.07,37.23,95.45Z" fill="#2e86fe"/><path d="M62.28,67.24s1.66.08,9.84-.36c10.66-.58,21.08-9.77,25.45-9.65h.06c1.79,0,4,2.15,2.7,3.41-7.89,7.83-21.24,19.3-29.22,21.26-7.8,1.92-15,6.14-33.15,5.94a7.59,7.59,0,0,0-2.4.65A1.61,1.61,0,0,1,33.7,88c-1.83-2.46-6.24-9.42-5.3-18.3l1.9.11c3.57-1,5.55-1.41,6.62-4.71V65c1.14-3.53,5-6.14,9.69-6.14H74.78c.64,0,1.11.49,1,1-.66,2.23-2.89,7.37-9.5,7.37" fill="#fff"/><path d="M26.26,70.62l4-.85c3.57-1,5.55-1.41,6.62-4.71V65c1.14-3.53,5-6.14,9.69-6.14H74.78c.64,0,1.11.49,1,1C75.08,62.1,73.24,67,66.63,67H63.24" fill="none" stroke="#0c2780" stroke-linecap="round" stroke-linejoin="bevel" stroke-width="3"/><path d="M68.77,66.85a47.58,47.58,0,0,0,7-1c10.7-2.62,17.42-8.77,21.8-8.64h.06c1.79,0,4,2.15,2.7,3.41C92.43,68.47,81.12,77.44,71,81.89c-7.29,3.2-13.36,4.59-33,6a57.33,57.33,0,0,0-6.49,1.91" fill="none" stroke="#0c2780" stroke-linecap="round" stroke-linejoin="bevel" stroke-width="3"/><path d="M37.09,95.69l-13.65,4.43a17.91,17.91,0,0,1-11-34.07l14.37-4.66c-1.59,1.65-1,9.33,1.6,18.12,2.7,9.3,6.56,16.41,8.73,16.19Z" fill="url(#c)"/></svg>