<svg xmlns="http://www.w3.org/2000/svg" xmlns:xlink="http://www.w3.org/1999/xlink" viewBox="0 0 101.21 101.71"><defs><linearGradient id="a" x1="83" y1="85.32" x2="21.16" y2="22.07" gradientTransform="matrix(1, 0, 0, -1, 0, 103.43)" gradientUnits="userSpaceOnUse"><stop offset="0" stop-color="#11afff"/><stop offset="1" stop-color="#0c2780"/></linearGradient></defs><path d="M42.36,101,1.23,67.9a3.12,3.12,0,0,1-.47-4.51L54,2A4,4,0,0,1,59.5,1.6L99.79,34a3.63,3.63,0,0,1,.55,5.24L47.05,100.59a3.42,3.42,0,0,1-4.7.36Z" fill="url(#a)"/><path d="M39.14,95.87,2.75,66.64a3.1,3.1,0,0,1-.43-4.49L54.22,2.33a4,4,0,0,1,5.42-.47L95.22,30.42a3.61,3.61,0,0,1,.49,5.22L43.82,95.46a3.41,3.41,0,0,1-4.67.4Z" fill="#0c2780" stroke="#11afff" stroke-miterlimit="10" stroke-width="2"/><path d="M46.2,83,14.69,57.65a1.54,1.54,0,0,1-.2-2.24L56,7.51a1.71,1.71,0,0,1,2.33-.2l31.51,25.3a1.53,1.53,0,0,1,.2,2.23L48.53,82.74A1.7,1.7,0,0,1,46.2,83Z" fill="#fff"/><path d="M31.83,81.57,18.22,70.64a1.21,1.21,0,0,1-.17-1.75l.08-.1A1.35,1.35,0,0,1,20,68.63L33.57,79.57a1.21,1.21,0,0,1,.16,1.75l-.08.09A1.32,1.32,0,0,1,31.83,81.57Z" fill="#fff"/><path d="M71,23,40.35,58.35" fill="none" stroke="#0c2780" stroke-linecap="round" stroke-miterlimit="10" stroke-width="2"/><path d="M47.07,55.56,42,51.49a1,1,0,0,1-.13-1.38L62.35,26.5a1.06,1.06,0,0,1,1.44-.13l5.07,4.08A1,1,0,0,1,69,31.83L48.51,55.44A1.06,1.06,0,0,1,47.07,55.56Z" fill="#0c2780"/><path d="M55.88,21.47,25.23,56.8" fill="none" stroke="#0c2780" stroke-linecap="round" stroke-miterlimit="10" stroke-width="2"/><path d="M32,54l-5.08-4.07a1,1,0,0,1-.13-1.38L47.24,25a1,1,0,0,1,1.43-.12l5.08,4.07a1,1,0,0,1,.13,1.38L33.39,53.89A1,1,0,0,1,32,54Z" fill="#0c2780"/><path d="M75.28,37.05,44.63,72.37" fill="none" stroke="#0c2780" stroke-linecap="round" stroke-miterlimit="10" stroke-width="2"/><path d="M51.35,69.59l-5.07-4.07a1,1,0,0,1-.13-1.38L66.63,40.52a1.07,1.07,0,0,1,1.44-.12l5.07,4.07a1,1,0,0,1,.13,1.39L52.79,69.47A1.06,1.06,0,0,1,51.35,69.59Z" fill="#0c2780"/><path d="M83.66,54.78l-.06-.06a.71.71,0,0,1-.23-1L90,46.28a.8.8,0,0,1,1.07.06l.06,0a.72.72,0,0,1,.23,1l-6.63,7.45A.79.79,0,0,1,83.66,54.78Z" fill="#fff"/><path d="M68.32,71.94l-.06-.06a.71.71,0,0,1-.23-1L81,56.26a.79.79,0,0,1,1.06.06l.07,0a.73.73,0,0,1,.23,1L69.38,72A.79.79,0,0,1,68.32,71.94Z" fill="#fff"/></svg>