<svg xmlns="http://www.w3.org/2000/svg" xmlns:xlink="http://www.w3.org/1999/xlink" viewBox="0 0 102.66 81.13"><defs><clipPath id="a"><rect width="102.66" height="81.13" fill="none"/></clipPath><linearGradient id="b" x1="96.81" y1="81.65" x2="4.19" y2="15.58" gradientTransform="matrix(1, 0, 0, -1, 0, 84)" gradientUnits="userSpaceOnUse"><stop offset="0" stop-color="#fff"/><stop offset="1" stop-color="#11afff"/></linearGradient></defs><g clip-path="url(#a)"><path d="M51.75,56.7V80" fill="none" stroke="#11afff" stroke-linecap="round" stroke-miterlimit="10" stroke-width="2.25"/><path d="M54,59.69,65.14,79" fill="none" stroke="#11afff" stroke-linecap="round" stroke-miterlimit="10" stroke-width="2.25"/><path d="M49.52,59.69,38.36,79" fill="none" stroke="#11afff" stroke-linecap="round" stroke-miterlimit="10" stroke-width="2.25"/><path d="M65,62.48H37v5.87H65Z" fill="#0c2780"/><path d="M94.71,2.87H8.79A4.19,4.19,0,0,0,4.61,7.06V61.92a4.19,4.19,0,0,0,4.18,4.19H94.71a4.2,4.2,0,0,0,4.19-4.19V7.06A4.2,4.2,0,0,0,94.71,2.87Z" fill="url(#b)"/><path d="M99.54.84H4A2.27,2.27,0,0,0,1.69,3.12V5.67A2.27,2.27,0,0,0,4,8H99.54a2.27,2.27,0,0,0,2.27-2.28V3.12A2.27,2.27,0,0,0,99.54.84Z" fill="#0c2780" stroke="#11afff" stroke-miterlimit="10" stroke-width="1.69"/><path d="M4.81,71.28a4,4,0,0,1-2.74-6.84L38.79,29.36a1.94,1.94,0,0,1,1.35-.54,1.91,1.91,0,0,1,1.35.55,2,2,0,0,1,.1,2.69L7.78,70A4,4,0,0,1,4.81,71.28Z" fill="#0c2780"/><path d="M40.14,29.67a1.07,1.07,0,0,1,.76.31A1.09,1.09,0,0,1,41,31.5L7.15,69.39a3.15,3.15,0,0,1-2.34,1,3.13,3.13,0,0,1-2.16-5.39L39.37,30a1.09,1.09,0,0,1,.76-.31m0-1.68a2.79,2.79,0,0,0-1.93.77L1.49,63.83A4.73,4.73,0,0,0,0,67.3a4.82,4.82,0,0,0,8.41,3.22l33.81-37.9A2.78,2.78,0,0,0,40.14,28Z" fill="#11afff"/></g></svg>