<svg xmlns="http://www.w3.org/2000/svg" xmlns:xlink="http://www.w3.org/1999/xlink" viewBox="0 0 99 99"><defs><clipPath id="a"><rect width="99" height="99" fill="none"/></clipPath><linearGradient id="b" x1="78.17" y1="93.69" x2="23.36" y2="11.12" gradientTransform="matrix(1, 0, 0, -1, 0, 100)" gradientUnits="userSpaceOnUse"><stop offset="0" stop-color="#fff"/><stop offset="1" stop-color="#11afff"/></linearGradient></defs><g clip-path="url(#a)"><path d="M49.5,98.14A48.64,48.64,0,1,0,.86,49.5,48.64,48.64,0,0,0,49.5,98.14Z" fill="#0c2780" stroke="#11afff" stroke-miterlimit="10" stroke-width="2"/><path d="M49.5,90.85A41.35,41.35,0,1,0,8.15,49.5,41.36,41.36,0,0,0,49.5,90.85Z" fill="url(#b)"/><path d="M40.87,65.9,26.77,53.67A3.94,3.94,0,0,1,26.54,48l.29-.32a4.11,4.11,0,0,1,5.73-.47l18,15.6-2.22,2.46a5.36,5.36,0,0,1-7.45.61Z" fill="#0c2780"/><path d="M48.54,65,72.4,38.83a4.15,4.15,0,0,0-.24-6,4.34,4.34,0,0,0-6,.47L38.41,63.81l2.14,1.86A5.76,5.76,0,0,0,48.54,65Z" fill="#0c2780"/></g></svg>