<?xml version="1.0" encoding="utf-8"?>
<!-- Generator: Adobe Illustrator 25.4.1, SVG Export Plug-In . SVG Version: 6.00 Build 0)  -->
<svg version="1.1" id="Layer_1" xmlns="http://www.w3.org/2000/svg" xmlns:xlink="http://www.w3.org/1999/xlink" x="0px" y="0px"
	 viewBox="0 0 340.7 80" style="enable-background:new 0 0 340.7 80;" xml:space="preserve">
<style type="text/css">
	.st0{fill:#11afff;}
</style>
<path class="st0" d="M187.6,9.3H177V0h-16.3v9.3h-10.6v15.2h10.6v9.3H177v-9.3h10.6V9.3z"/>
<path class="st0" d="M0,65.6V27.4h39.4c0.7,0,1.4,0,2.2,0.1c0.7,0.1,1.5,0.2,2.2,0.4c0.7,0.2,1.4,0.6,2,0.9c0.7,0.4,1.3,0.8,1.8,1.3
	c0.4,0.4,0.8,0.9,1.1,1.4c0.3,0.5,0.6,1.1,0.9,1.7c0.2,0.6,0.4,1.3,0.6,2.1c0.1,0.8,0.2,1.6,0.2,2.5V51c0,0.8-0.1,1.6-0.2,2.4
	c-0.1,0.7-0.3,1.4-0.6,2c-0.2,0.6-0.5,1.1-0.8,1.6c-0.4,0.5-0.7,1-1.1,1.4c-0.4,0.4-0.9,0.8-1.4,1.1c-0.5,0.3-1.1,0.6-1.7,0.8
	c-0.7,0.3-1.5,0.5-2.3,0.6c-0.8,0.1-1.6,0.2-2.4,0.2H18.5v18.7H8.2H0V65.6z M18.5,36.1v16.4h11c0.3,0,0.6-0.1,0.9-0.3
	c0.3-0.2,0.5-0.4,0.7-0.7c0.2-0.3,0.3-0.6,0.4-1c0.1-0.3,0.1-0.7,0.1-1V38.6c0-0.4-0.1-0.7-0.2-1.1c-0.1-0.3-0.3-0.6-0.5-0.8
	c-0.2-0.2-0.4-0.4-0.7-0.6c-0.3-0.1-0.5-0.2-0.8-0.2L18.5,36.1L18.5,36.1z"/>
<path class="st0" d="M98.2,41.2v29.1c0,0.2,0.1,0.5,0.2,0.8c0.2,0.3,0.3,0.5,0.5,0.7c0.2,0.2,0.5,0.4,0.8,0.5
	c0.3,0.1,0.5,0.2,0.8,0.2h8.1c0.3,0,0.5,0,0.8-0.1c0.3-0.1,0.5-0.2,0.7-0.4c0.2-0.2,0.4-0.4,0.5-0.6c0.1-0.2,0.2-0.5,0.2-0.7V41.3
	h18.1V80h-38c-0.8,0-1.6-0.1-2.4-0.3c-0.7-0.2-1.4-0.4-2.1-0.7c-0.6-0.3-1.2-0.7-1.8-1.2c-0.5-0.5-1-1-1.5-1.5
	c-0.4-0.5-0.9-1.1-1.2-1.8c-0.4-0.7-0.7-1.3-0.9-2c-0.2-0.7-0.4-1.4-0.5-2.1c-0.1-0.7-0.2-1.4-0.2-2.1V41.2L98.2,41.2L98.2,41.2z"/>
<path class="st0" d="M177,41.4v7.1h-23.9c-0.2,0-0.3,0-0.6,0.1c-0.2,0.1-0.4,0.2-0.6,0.3c-0.2,0.1-0.4,0.2-0.5,0.4
	c-0.1,0.1-0.2,0.3-0.2,0.5v2.1c0,0.2,0.1,0.4,0.2,0.5c0.2,0.1,0.3,0.2,0.5,0.3c0.2,0.1,0.4,0.2,0.6,0.2c0.2,0.1,0.4,0.1,0.6,0.1
	h17.6c0.5,0,1.1,0,1.7,0.1c0.6,0.1,1.1,0.2,1.6,0.4c0.5,0.2,1.1,0.4,1.5,0.7c0.5,0.3,0.9,0.6,1.3,1c0.3,0.3,0.7,0.7,0.9,1.2
	c0.3,0.4,0.5,0.9,0.7,1.5c0.2,0.5,0.3,1.1,0.4,1.7c0.1,0.6,0.2,1.3,0.2,2.1v9c0,0.7-0.1,1.3-0.2,2c-0.1,0.6-0.3,1.3-0.6,1.8
	c-0.2,0.5-0.5,1-0.8,1.5c-0.4,0.5-0.7,0.9-1,1.3c-0.5,0.4-0.9,0.7-1.4,1.1c-0.5,0.3-1,0.6-1.5,0.8c-0.7,0.3-1.4,0.5-2.1,0.6
	c-0.7,0.1-1.4,0.2-2.1,0.2H135v-7h25.6c0.2,0,0.4,0,0.6-0.1c0.2-0.1,0.4-0.2,0.6-0.4c0.2-0.1,0.3-0.2,0.4-0.4
	c0.1-0.2,0.1-0.4,0.1-0.6v-2.1c0-0.2-0.1-0.4-0.1-0.5c-0.1-0.2-0.3-0.3-0.4-0.4c-0.2-0.1-0.4-0.3-0.6-0.3c-0.2-0.1-0.4-0.1-0.6-0.1
	h-17.6c-0.7,0-1.4-0.1-2.1-0.2c-0.7-0.1-1.4-0.3-2.1-0.6c-0.4-0.2-0.9-0.4-1.3-0.7c-0.4-0.3-0.8-0.6-1.1-1c-0.3-0.3-0.6-0.7-0.8-1.1
	c-0.2-0.4-0.4-0.8-0.6-1.3c-0.1-0.4-0.2-0.8-0.2-1.2c-0.1-0.4-0.1-0.9-0.1-1.4V50c0-0.7,0.1-1.3,0.2-1.9c0.1-0.6,0.3-1.1,0.6-1.7
	c0.3-0.5,0.6-1,1-1.4c0.3-0.4,0.7-0.8,1.2-1.2c0.4-0.4,0.9-0.7,1.4-1c0.5-0.3,1.1-0.5,1.6-0.7c0.7-0.2,1.4-0.4,2.2-0.6
	c0.7-0.1,1.5-0.2,2.2-0.2H177z"/>
<path class="st0" d="M231.2,31.8v7.9h-28.3l-0.5,9.5h19.9c1.3,0,2.4,0.2,3.5,0.5c0.7,0.2,1.3,0.5,1.9,0.9c0.6,0.4,1.1,0.8,1.5,1.3
	c0.4,0.4,0.8,0.9,1.1,1.4c0.3,0.5,0.6,1,0.8,1.5c0.2,0.6,0.4,1.2,0.5,1.8c0.1,0.6,0.2,1.2,0.2,1.9v12.7c0,0.7-0.1,1.4-0.2,2
	c-0.1,0.6-0.3,1.1-0.5,1.7c-0.2,0.7-0.6,1.3-1,1.8c-0.4,0.5-0.8,1-1.3,1.4c-0.5,0.3-0.9,0.6-1.4,0.9c-0.5,0.3-1,0.5-1.6,0.6
	c-0.6,0.2-1.1,0.3-1.7,0.4c-0.6,0.1-1.2,0.1-1.8,0.1H187v-7.8h26.3c0.3,0,0.5-0.1,0.7-0.3c0.2-0.2,0.4-0.5,0.5-0.8
	c0.1-0.3,0.2-0.6,0.3-1c0.1-0.3,0.1-0.6,0.1-0.9v-9.5c0-0.4-0.1-0.8-0.2-1.1c-0.1-0.3-0.3-0.6-0.5-0.7c-0.2-0.2-0.4-0.4-0.6-0.5
	c-0.3-0.1-0.5-0.1-0.8-0.1h-26.7l0.3-25.5L231.2,31.8L231.2,31.8z"/>
<path class="st0" d="M248.3,31.7H276c0.8,0,1.6,0.1,2.3,0.2c0.7,0.2,1.3,0.3,1.9,0.6c0.7,0.3,1.3,0.7,1.8,1.1c0.5,0.4,1,0.9,1.4,1.4
	c0.5,0.6,1,1.3,1.3,2.1c0.3,0.8,0.6,1.5,0.9,2.3c0.2,0.8,0.4,1.6,0.5,2.4c0.1,0.8,0.1,1.6,0.1,2.4v23.3c0,0.9,0,1.7-0.1,2.5
	c-0.1,0.8-0.2,1.5-0.5,2.2c-0.2,0.9-0.5,1.7-0.9,2.4c-0.4,0.8-0.8,1.4-1.3,2c-0.5,0.5-1,1-1.5,1.4c-0.5,0.4-1.1,0.8-1.7,1
	c-0.6,0.3-1.3,0.5-1.9,0.7c-0.7,0.1-1.3,0.2-2,0.2h-28.2c-0.8,0-1.5-0.1-2.3-0.2c-0.8-0.2-1.5-0.4-2.2-0.8c-0.7-0.4-1.3-0.8-1.9-1.3
	c-0.6-0.5-1.1-1.1-1.6-1.9c-0.4-0.6-0.7-1.2-1-2c-0.3-0.7-0.6-1.5-0.8-2.3c-0.1-0.7-0.2-1.4-0.3-2.1c-0.1-0.7-0.1-1.5-0.1-2.4V44.9
	c0-0.8,0.1-1.7,0.2-2.6c0.1-0.9,0.3-1.7,0.5-2.6c0.2-0.9,0.4-1.7,0.8-2.5c0.4-0.8,0.8-1.5,1.3-2.1c0.5-0.6,1-1.1,1.6-1.6
	c0.6-0.5,1.3-0.8,2-1.1c0.6-0.2,1.2-0.4,1.8-0.5C246.8,31.8,247.5,31.7,248.3,31.7z M266.5,39.8h-9.1c-0.3,0-0.6,0.1-1,0.3
	c-0.3,0.2-0.6,0.4-0.9,0.7c-0.3,0.3-0.5,0.6-0.6,0.9c-0.2,0.3-0.2,0.6-0.2,1v26.6c0,0.4,0.1,0.7,0.3,1c0.2,0.3,0.5,0.6,0.7,0.8
	c0.3,0.3,0.6,0.5,0.9,0.7c0.4,0.2,0.7,0.3,1.1,0.3h8.7c0.3,0,0.5-0.1,0.8-0.2c0.3-0.1,0.6-0.3,0.9-0.5c0.2-0.2,0.4-0.4,0.6-0.7
	c0.2-0.3,0.2-0.5,0.2-0.8V42c0-0.3-0.1-0.5-0.2-0.8c-0.2-0.3-0.4-0.5-0.6-0.7c-0.3-0.2-0.6-0.4-0.9-0.5
	C267.1,39.8,266.8,39.8,266.5,39.8z"/>
<path class="st0" d="M302.8,31.7h27.7c0.8,0,1.6,0.1,2.3,0.2c0.7,0.2,1.4,0.3,1.9,0.6c0.7,0.3,1.3,0.7,1.8,1.1
	c0.5,0.4,1,0.9,1.4,1.4c0.6,0.6,1,1.3,1.3,2.1c0.3,0.8,0.6,1.5,0.9,2.3c0.2,0.8,0.4,1.6,0.5,2.4c0.1,0.8,0.1,1.6,0.1,2.4v23.3
	c0,0.9,0,1.7-0.1,2.5c-0.1,0.8-0.3,1.5-0.5,2.2c-0.2,0.9-0.5,1.7-0.9,2.4c-0.4,0.8-0.8,1.4-1.3,2c-0.5,0.5-1,1-1.5,1.4
	c-0.6,0.4-1.1,0.8-1.7,1c-0.6,0.3-1.3,0.5-1.9,0.7c-0.7,0.1-1.3,0.2-2,0.2h-28.2c-0.8,0-1.5-0.1-2.3-0.2c-0.8-0.2-1.5-0.4-2.2-0.8
	c-0.7-0.4-1.3-0.8-1.9-1.3c-0.6-0.5-1.1-1.1-1.6-1.9c-0.4-0.6-0.7-1.2-1-2c-0.3-0.7-0.6-1.5-0.7-2.3c-0.1-0.7-0.3-1.4-0.3-2.1
	c-0.1-0.7-0.1-1.5-0.1-2.4V44.9c0-0.8,0.1-1.7,0.2-2.6c0.1-0.9,0.3-1.7,0.5-2.6c0.2-0.9,0.5-1.7,0.8-2.5c0.4-0.8,0.8-1.5,1.3-2.1
	c0.5-0.6,1-1.1,1.6-1.6c0.6-0.5,1.3-0.8,2-1.1c0.6-0.2,1.2-0.4,1.8-0.5C301.3,31.8,302,31.7,302.8,31.7z M321,39.8h-9
	c-0.3,0-0.6,0.1-1,0.3c-0.3,0.2-0.6,0.4-0.9,0.7c-0.3,0.3-0.5,0.6-0.6,0.9c-0.2,0.3-0.2,0.6-0.2,1v26.6c0,0.4,0.1,0.7,0.3,1
	c0.2,0.3,0.4,0.6,0.7,0.8c0.3,0.3,0.6,0.5,1,0.7c0.4,0.2,0.7,0.3,1.1,0.3h8.7c0.3,0,0.6-0.1,0.9-0.2c0.3-0.1,0.6-0.3,0.9-0.5
	c0.2-0.2,0.4-0.4,0.6-0.7c0.2-0.3,0.2-0.5,0.2-0.8V42c0-0.3-0.1-0.5-0.2-0.8c-0.2-0.3-0.4-0.5-0.6-0.7c-0.3-0.2-0.6-0.4-0.9-0.5
	C321.6,39.8,321.3,39.8,321,39.8z"/>
<path class="st0" d="M74.3,79.7c0,0-8.8,0.1-9.6,0c-0.8-0.1-1.4-0.5-2.1-0.9c-0.6-0.4-1.2-1-1.8-1.6c-0.6-0.6-1-1.3-1.5-2
	c-0.4-0.7-0.9-1.5-1.2-2.4c-0.4-0.9-0.7-1.8-0.9-2.7c-0.2-0.9-0.4-1.8-0.5-2.8c-0.1-0.9-0.2-1.9-0.2-2.8V28.8h17.8L74.3,79.7z"/>
</svg>
