<svg width="964" height="152" fill="none" xmlns="http://www.w3.org/2000/svg"><path d="m964.002.167-.083 34.75h-20.25v-14.5h-23.417V64.75h30l13.667 13.75v59.583L951.002 151l-23.416.083-7.5-4.666.083 4.75-20.167-.167-.083-34.75h20.333v14.417h23.417V85.083h-28.833l-14.917-15v-57l13-13 24.417.084 7.333 4.583V0l19.333.167ZM700.248 20.415h-6.833V.082h34.333v20.333h-7.167v117.583l-13 13h-38.083l-13-13V20.415h-6.75V.082h34.333v20.333h-7.25v110.25h23.417V20.415ZM787.251 130.665h-23V20.415h7.417V.082h-34.917v20.333h7.167v110.25h-7.167v20.333l70.833-.083v-33.583h-20.333v13.333Z" fill="#fff"/><path fill-rule="evenodd" clip-rule="evenodd" d="M572.754 20.834V.5h59l11.833 11.834v57.333l-6.416 6.334 6.416 6.416v57.167l-11.833 11.75h-59v-20.25h7.167V20.834h-7.167Zm50.5 0h-23V65.75h23V20.834Zm0 65.25h-23v45h23v-45Z" fill="#fff"/><path d="M869.169 130.665h-23V20.415h7.417V.082h-34.917v20.333h7.167v110.25h-7.167v20.333l70.833-.083v-33.583h-20.333v13.333Z" fill="#fff"/><path fill-rule="evenodd" clip-rule="evenodd" d="m454.004 13.5 13-13h38.083l13 13v125l-13 13h-38.083l-13-13v-125Zm43.75 7.417h-23.417l.334 110.167h23.083V20.917ZM335.584.5h-20.25l-20.917 130.667h-8.333v20.167h34.833v-20.167h-6.333l1.25-7.583h18.75l1.167 7.583h-6.25v20.167h34.75v-20.167h-8.334L335.584.5Zm-16.25 102.834 6.083-38.25 6.167 38.25h-12.25Z" fill="#fff"/><path d="m64.333 1.334-.25 40.667H43.75V20.917H20.333v110.25H43.75v-21.166h20.333v28.5l-13 13H13l-13-13v-125L13 .584l23.917-.25 7.416 4.917V1l20 .333ZM441.166 34.415l.167-33.75-20-.25.083 4.667-7.083-4.5h-24.25l-13 13v124.916l13 13h38.083l13-13V65.832l-36.75.083v20.333h16.417v44.917h-23.417V20.915h23.417v13.5h20.333ZM171.75 20.915h-7.167V.582h34.833v20.333h-7.333v110.25h7.333v20.334h-34.833v-20.334h7.167V20.915ZM118.17 20.915h7.167v44.667H101.67V20.915h7.333V.582H74.17v20.333h7.167v110.25H74.17v20.334h34.833v-20.334h-7.333v-45.25h23.667v45.25h-7.167v20.334h34.75v-20.334h-7.333V20.915h7.333V.582h-34.75v20.333ZM279.584 1.334l-.25 40.667h-20.25V20.917h-23.5v110.25h23.5v-21.166h20.25v28.5l-12.916 13h-38.167l-13-13v-125l13-12.917 24-.25 7.417 4.917V1l19.916.333Z" fill="#fff"/></svg>